<svg width="85" height="20" xmlns="http://www.w3.org/2000/svg" xmlns:xlink="http://www.w3.org/1999/xlink" xml:space="preserve" overflow="hidden"><g transform="translate(-37 -198)"><path d="M0 10 0 20 9.93617 20 19.8723 20 19.8723 10 19.8723 0 9.93617 0 0 0 0 10ZM36.9787 5.2766 36.9787 6.21277 38.7447 6.21277 40.5106 6.21277 40.5106 10.9149 40.5106 15.617 41.5319 15.617 42.5532 15.617 42.5532 10.9149 42.5532 6.21277 44.3191 6.21277 46.0851 6.21277 46.0851 5.2766 46.0851 4.34043 41.5319 4.34043 36.9787 4.34043 36.9787 5.2766ZM49.7447 9.97872 49.7447 15.617 53.6809 15.617 57.617 15.617 57.617 14.6809 57.617 13.7447 54.6809 13.7447 51.7447 13.7447 51.7447 9.04255 51.7447 4.34043 50.7447 4.34043 49.7447 4.34043 49.7447 9.97872ZM61.234 9.97872 61.234 15.617 65.4043 15.617 69.5745 15.617 69.5745 14.7021 69.5745 13.7872 66.2979 13.7872 63.0213 13.7872 63.0213 12.3191 63.0213 10.8511 65.5319 10.8511 68.0425 10.8511 68.0425 9.93617 68.0425 9.02128 65.5319 9.02128 63.0213 9.02128 63.0213 7.59574 63.0213 6.17021 66.2979 6.17021 69.5745 6.17021 69.5745 5.25532 69.5745 4.34043 65.4043 4.34043 61.234 4.34043 61.234 9.97872ZM73.5319 9.97872 73.5319 15.617 74.5319 15.617 75.5319 15.617 75.5319 13.6596 75.5319 11.7021 76.7553 11.7044 77.9787 11.7068 79.343 13.6512 80.7077 15.5957 81.8906 15.6071C82.8409 15.6162 83.0694 15.6076 83.0523 15.5636 83.0408 15.5335 82.4106 14.638 81.6523 13.5736 80.8936 12.5092 80.2294 11.576 80.1762 11.4998 80.0851 11.3697 80.0838 11.3597 80.1566 11.335 80.3923 11.2549 80.9315 11.0094 81.1413 10.8864 81.274 10.8085 81.557 10.5718 81.7698 10.3605 82.0847 10.0481 82.1898 9.90902 82.334 9.61583 82.6166 9.04038 82.6923 8.68706 82.6923 7.93617 82.6923 7.19021 82.6162 6.82928 82.3426 6.2766 81.8094 5.1983 80.7136 4.54123 79.1881 4.38468 78.94 4.35919 77.6485 4.34043 76.1443 4.34043L73.5319 4.34043 73.5319 9.97872ZM13.2423 9.93617C14.5695 12.9787 15.6653 15.492 15.6774 15.5213 15.6947 15.563 15.4812 15.5743 14.6902 15.5736L13.6809 15.5727 11.8124 11.1587C10.7847 8.73098 9.93111 6.72979 9.91545 6.71157 9.89983 6.6934 9.03808 8.68008 8.00051 11.1265L6.11396 15.5745 5.14426 15.5745 4.17455 15.5745 4.23238 15.4362C4.3806 15.0817 8.99123 4.52421 9.02702 4.45732 9.06443 4.38745 9.1394 4.38221 9.94843 4.39277L10.8291 4.40426 13.2423 9.93617ZM23.5745 10 23.5745 15.617 24.553 15.617 25.5315 15.617 25.5423 11.6833 25.5532 7.74953 28.5957 11.6829 31.6383 15.6162 32.5 15.6166 33.3617 15.617 33.3617 10 33.3617 4.38298 32.3619 4.38298 31.3622 4.38298 31.3513 8.21289 31.3404 12.0428 28.383 8.21511 25.4255 4.3874 24.5 4.38519 23.5745 4.38298 23.5745 10ZM79.1489 6.27302C79.7638 6.40366 80.2745 6.76234 80.4877 7.21328 80.9136 8.11336 80.5817 9.14592 79.72 9.60357 79.2081 9.87532 79.1306 9.88472 77.2447 9.90366L75.5319 9.92089 75.5319 8.06685 75.5319 6.21277 77.2021 6.21349C78.4587 6.21404 78.9408 6.22881 79.1489 6.27302Z" fill="#ED4746" fill-rule="evenodd" transform="matrix(1.02331 0 0 1 37 198)"/></g></svg>