<svg width="661" height="132" xmlns="http://www.w3.org/2000/svg" xmlns:xlink="http://www.w3.org/1999/xlink" xml:space="preserve" overflow="hidden"><defs><linearGradient x1="71.5631" y1="216.83" x2="264.133" y2="135.249" gradientUnits="userSpaceOnUse" spreadMethod="reflect" id="fill0"><stop offset="0" stop-color="#00B0F0"/><stop offset="0.31" stop-color="#00B0F0"/><stop offset="0.65" stop-color="#FF4243"/><stop offset="1" stop-color="#FF4243"/></linearGradient></defs><g transform="translate(-104 -107)"><path d="M188.42 181.384 191.541 183.103C194.039 184.961 196.047 187.477 197.264 190.273L197.685 191.808 196.9 192.456 206.485 209.586 208.588 208.933C209.577 208.731 210.6 208.625 211.648 208.625 220.033 208.625 226.83 215.422 226.83 223.806 226.83 232.191 220.033 238.988 211.648 238.988 203.263 238.988 196.466 232.191 196.466 223.806 196.466 219.614 198.165 215.819 200.913 213.071L201.552 212.64 191.968 195.512 187.835 197.14C184.922 198.046 181.824 198.534 178.613 198.534 172.19 198.534 166.223 196.582 161.273 193.238L160.784 192.834 160.944 191.401C161.808 188.081 163.716 184.956 166.327 182.623L167.983 181.428 188.42 181.428ZM179.283 151.009C173.242 151.009 168.345 155.906 168.345 161.947 168.345 167.988 173.242 172.886 179.283 172.886 185.324 172.886 190.222 167.988 190.222 161.947 190.222 155.906 185.324 151.009 179.283 151.009ZM194.528 107.332C199.31 107.332 203.186 111.208 203.186 115.99 203.186 120.771 199.31 124.647 194.528 124.647L193.74 124.488 188.272 138.196 190.684 138.945C201.816 143.653 209.626 154.675 209.626 167.521 209.626 173.944 207.673 179.911 204.329 184.861L200.948 188.959 198.024 183.952C195.508 180.768 192.087 178.253 188.181 176.94L188.153 177.09 167.939 177.09 167.844 176.818 167.472 177.09 167.297 177.09 167.297 177.218 162.903 180.435C161.45 181.869 160.206 183.508 159.211 185.276L157.362 190.011 156.683 189.451 155.451 187.957 132.464 212.223 131.262 211.085 133.603 214.557C134.371 216.373 134.796 218.37 134.796 220.466 134.796 228.851 127.999 235.648 119.615 235.648 111.23 235.648 104.433 228.851 104.433 220.466 104.433 212.082 111.23 205.285 119.615 205.285 121.711 205.285 123.708 205.709 125.524 206.478L128.559 208.524 128.257 208.237 151.987 183.186 150.037 179.593C148.467 175.883 147.6 171.803 147.6 167.521 147.6 163.239 148.467 159.16 150.037 155.449L150.736 154.162 132.655 144.386 132.613 144.449C129.866 147.196 126.07 148.895 121.878 148.895 113.493 148.895 106.696 142.098 106.696 133.714 106.696 125.329 113.493 118.532 121.878 118.532 130.262 118.532 137.059 125.329 137.06 133.714 137.06 134.762 136.953 135.785 136.751 136.773L135.874 139.597 153.684 149.227 156.683 145.592C162.295 139.979 170.049 136.508 178.613 136.508L184.171 137.068 189.77 123.031 188.406 122.112C186.839 120.545 185.87 118.38 185.87 115.99 185.87 111.208 189.746 107.332 194.528 107.332Z" fill="url(#fill0)" fill-rule="evenodd"/><path d="M548.172 199.084 597.295 199.084C599.141 199.084 600.636 200.584 600.636 202.435L600.636 209.664C600.636 211.515 599.141 213.015 597.295 213.015L548.172 213.015C546.326 213.015 544.83 211.515 544.83 209.664L544.83 202.435C544.83 200.584 546.326 199.084 548.172 199.084ZM511.611 185.619 525.291 185.619 524.704 188.195C520.745 202.573 508.827 213.374 494.321 214.929L492.998 215 492.998 202.454 493.396 202.432C501.506 201.51 508.281 195.53 511.161 187.354L511.611 185.619ZM548.172 169.649 592.418 169.649C594.264 169.649 595.759 171.149 595.759 173L595.759 180.23C595.759 182.08 594.264 183.581 592.418 183.581L548.172 183.581C546.326 183.581 544.83 182.08 544.83 180.23L544.83 173C544.83 171.149 546.326 169.649 548.172 169.649ZM425.528 169.62 432.736 169.62C434.581 169.62 436.077 171.121 436.077 172.971L436.077 210.067C436.077 211.918 434.581 213.418 432.736 213.418L425.528 213.418C423.683 213.418 422.187 211.918 422.187 210.067L422.187 172.971C422.187 171.121 423.683 169.62 425.528 169.62ZM486.448 140.744 486.717 154.555 482.856 156.437C475.159 160.08 469.759 168.611 469.759 178.553 469.759 188.495 475.159 197.026 482.856 200.669L486.717 202.011 486.717 214.871 483.565 214.363C467.431 210.877 455.295 195.805 455.295 177.74 455.295 159.675 467.431 144.603 483.565 141.117 484.616 140.948 485.397 140.913 486.448 140.744ZM267.341 140.48 298.599 140.48 299.507 140.664 300.605 140.588C312.857 140.588 322.789 151.492 322.789 164.942 322.789 178.392 312.857 189.295 300.605 189.295L299.11 189.192 298.599 189.295 277.89 189.295 277.89 210.067C277.89 211.918 276.394 213.418 274.549 213.418L267.341 213.418C265.496 213.418 264 211.918 264 210.067L264 182.927 264 182.927 264 178.715C264 176.864 265.496 175.364 267.341 175.364L280.63 175.364 298.599 175.364 299.133 175.364C304.289 175.364 308.469 171.171 308.469 165.999L308.469 163.776C308.469 158.604 304.289 154.412 299.133 154.412L298.599 154.412 280.684 154.412 267.341 154.412C265.496 154.412 264 152.911 264 151.061L264 143.831C264 141.98 265.496 140.48 267.341 140.48ZM344.665 140.48 375.923 140.48 376.831 140.664 377.929 140.588C390.181 140.588 400.113 151.492 400.113 164.942 400.113 173.348 396.233 180.76 390.332 185.136L388.621 186.156 397.819 201.124 402.02 207.695 402.185 208.12 402.715 208.909 402.969 210.172 402.715 211.435C402.223 212.6 401.073 213.418 399.733 213.418L391.399 213.418 390.423 213.22 390.076 213.206C389.244 213.008 388.487 212.492 388.003 211.704L374.234 189.295 355.214 189.295 355.214 210.067C355.214 211.918 353.718 213.418 351.873 213.418L344.665 213.418C342.82 213.418 341.324 211.918 341.324 210.067L341.324 182.927 341.324 182.927 341.324 178.715C341.324 176.864 342.82 175.363 344.665 175.363L357.954 175.363 375.923 175.363 376.456 175.363C381.613 175.363 385.793 171.171 385.793 165.999L385.793 163.776C385.793 158.604 381.613 154.412 376.456 154.412L375.923 154.412 358.008 154.412 344.665 154.412C342.82 154.412 341.324 152.911 341.324 151.061L341.324 143.831C341.324 141.98 342.82 140.48 344.665 140.48ZM425.528 140.48 432.736 140.48C434.581 140.48 436.077 141.98 436.077 143.831L436.077 161.861C436.077 163.711 434.581 165.212 432.736 165.212L425.528 165.212C423.683 165.212 422.187 163.711 422.187 161.861L422.187 143.831C422.187 141.98 423.683 140.48 425.528 140.48ZM548.172 140.48 597.295 140.48C599.141 140.48 600.636 141.98 600.636 143.831L600.636 151.061C600.636 152.911 599.141 154.412 597.295 154.412L548.172 154.412C546.326 154.412 544.83 152.911 544.83 151.061L544.83 143.831C544.83 141.98 546.326 140.48 548.172 140.48ZM492.998 140.48 494.321 140.551C509.943 142.226 522.563 154.624 525.474 170.663L525.612 171.688 511.663 171.688 511.161 169.752C508.281 161.576 501.506 155.596 493.396 154.674L492.998 154.652 492.998 140.48ZM623.195 140.077 654.453 140.077 655.362 140.261 656.459 140.185C668.711 140.185 678.644 151.089 678.644 164.539 678.644 172.945 674.764 180.357 668.863 184.733L667.151 185.753 676.349 200.722 680.55 207.293 680.715 207.718 681.245 208.506 681.499 209.769 681.245 211.033C680.754 212.198 679.604 213.015 678.263 213.015L669.929 213.015 668.953 212.818 668.606 212.803C667.775 212.605 667.018 212.089 666.534 211.301L652.764 188.893 633.744 188.893 633.744 209.664C633.744 211.515 632.248 213.015 630.403 213.015L623.195 213.015C621.35 213.015 619.854 211.515 619.854 209.664L619.854 182.524 619.854 182.524 619.854 178.312C619.854 176.461 621.35 174.961 623.195 174.961L636.485 174.961 654.453 174.961 654.987 174.961C660.143 174.961 664.323 170.768 664.323 165.596L664.323 163.374C664.323 158.202 660.143 154.009 654.987 154.009L654.453 154.009 636.538 154.009 623.195 154.009C621.35 154.009 619.854 152.509 619.854 150.658L619.854 143.429C619.854 141.578 621.35 140.077 623.195 140.077ZM723.894 140 725.111 140.058 733.896 140.058C734.496 140.058 735.039 140.302 735.433 140.697L735.476 140.761 736.164 141.218C736.478 141.529 736.737 141.907 736.917 142.342L760.567 199.666 760.783 199.974 765 209.954C765 211.867 763.432 213.418 761.499 213.418L696.309 213.418C694.375 213.418 692.808 210.893 692.584 209.684 692.18 208.83 694.851 201.022 697.992 198.952L744.937 198.848 729.11 160.485 715.46 192.38C714.411 194.263 714.591 194.483 710.717 194.812 707.261 194.907 704.976 194.933 702.622 193.923 700.814 193.147 699.975 191.048 700.748 189.235L720.88 142.03C721.46 140.669 722.507 139.994 723.894 140Z" fill="#FF4343" fill-rule="evenodd"/></g></svg>